<svg width="60" height="59" viewBox="0 0 60 59" fill="none" xmlns="http://www.w3.org/2000/svg">
<g id="Remove">
<path id="Vector" d="M30.1067 4.85864C29.589 4.86673 29.0958 5.07985 28.7351 5.45124C28.3745 5.82262 28.1759 6.32192 28.183 6.83955V7.81665H17.4349C17.176 7.81314 16.9191 7.86109 16.6789 7.95772C16.4387 8.05435 16.2201 8.19774 16.0358 8.37955C15.8515 8.56136 15.7052 8.77798 15.6053 9.01682C15.5054 9.25566 15.454 9.51196 15.454 9.77085H12.5494C12.2905 9.76719 12.0334 9.81503 11.7931 9.91159C11.5528 10.0082 11.334 10.1515 11.1496 10.3333C10.9652 10.5152 10.8188 10.7318 10.7188 10.9708C10.6189 11.2097 10.5674 11.4661 10.5674 11.725C10.5674 11.984 10.6189 12.2404 10.7188 12.4793C10.8188 12.7183 10.9652 12.9349 11.1496 13.1168C11.334 13.2986 11.5528 13.4419 11.7931 13.5385C12.0334 13.6351 12.2905 13.6829 12.5494 13.6792H47.725C47.9839 13.6829 48.241 13.6351 48.4813 13.5385C48.7216 13.4419 48.9404 13.2986 49.1248 13.1168C49.3092 12.9349 49.4556 12.7183 49.5556 12.4793C49.6555 12.2404 49.707 11.984 49.707 11.725C49.707 11.4661 49.6555 11.2097 49.5556 10.9708C49.4556 10.7318 49.3092 10.5152 49.1248 10.3333C48.9404 10.1515 48.7216 10.0082 48.4813 9.91159C48.241 9.81503 47.9839 9.76719 47.725 9.77085H44.8204C44.8204 9.51196 44.769 9.25566 44.6691 9.01682C44.5692 8.77798 44.4229 8.56136 44.2386 8.37955C44.0543 8.19774 43.8357 8.05435 43.5955 7.95772C43.3553 7.86109 43.0984 7.81314 42.8395 7.81665H32.0914V6.83955C32.095 6.5781 32.0461 6.31859 31.9475 6.07639C31.849 5.83418 31.7029 5.61421 31.5178 5.4295C31.3328 5.24478 31.1125 5.09909 30.8701 5.00103C30.6277 4.90297 30.3681 4.85455 30.1067 4.85864ZM12.5494 17.5876L16.0532 47.3586C16.2838 49.3265 17.9495 50.809 19.9311 50.809H40.3433C42.3249 50.809 43.9886 49.3265 44.2212 47.3586L47.725 17.5876H12.5494Z" fill="#6C63FF"/>
</g>
</svg>
