<svg width="59" height="59" viewBox="0 0 59 59" fill="none" xmlns="http://www.w3.org/2000/svg">
<g id="Edit">
<path id="Vector" d="M44.6104 5.8623C43.6103 5.8623 42.6102 6.24423 41.847 7.00734L37.1295 11.7249L46.9005 21.4959L51.618 16.7783C53.1443 15.2521 53.1443 12.7778 51.618 11.2516L47.3738 7.00734C46.6106 6.24423 45.6105 5.8623 44.6104 5.8623ZM33.2211 15.6333L10.2783 38.576C10.2783 38.576 12.0718 38.4153 12.7402 39.0837C13.4085 39.752 12.8583 44.1255 13.6791 44.9463C14.4999 45.767 18.8458 45.1893 19.4692 45.8127C20.0926 46.4361 20.0493 48.347 20.0493 48.347L42.9921 25.4043L33.2211 15.6333ZM7.8165 44.9463L5.97299 50.1676C5.90052 50.3737 5.86311 50.5904 5.8623 50.8089C5.8623 51.3272 6.06819 51.8242 6.43468 52.1907C6.80116 52.5572 7.29822 52.7631 7.8165 52.7631C8.03493 52.7623 8.25167 52.7248 8.45772 52.6524C8.4641 52.6499 8.47046 52.6473 8.47681 52.6447L8.52643 52.6295C8.53025 52.6269 8.53407 52.6244 8.53788 52.6218L13.6791 50.8089L10.7478 47.8776L7.8165 44.9463Z" fill="#6C63FF"/>
</g>
</svg>
