<svg width="58" height="58" viewBox="0 0 58 58" fill="none" xmlns="http://www.w3.org/2000/svg">
<rect x="0.959854" y="0.959854" width="55.6715" height="55.6715" rx="8.63869" fill="white" stroke="#6C63FF" stroke-width="1.91971"/>
<path d="M25.0136 7.11426C19.9548 7.11426 15.8389 10.886 15.8389 15.5181C15.8389 17.0598 16.2932 18.5602 17.1604 19.8749L16.8369 23.1992C16.83 23.3231 16.8782 23.4401 16.9814 23.5089C17.0777 23.5846 17.2085 23.5984 17.3187 23.5502L19.8308 22.4559C21.3519 23.4194 23.1414 23.9288 25.0136 23.9288C30.0829 23.9288 34.1952 20.1704 34.1952 15.5181C34.1952 10.8312 30.0146 7.11426 25.0136 7.11426ZM23.0438 15.6574H22.5078C22.3176 15.6574 22.1636 15.5035 22.1636 15.3132C22.1636 15.123 22.3176 14.9691 22.5078 14.9691H23.0438C23.234 14.9691 23.388 15.123 23.388 15.3132C23.388 15.5034 23.234 15.6574 23.0438 15.6574ZM25.2824 15.6574H24.7464C24.5561 15.6574 24.4022 15.5035 24.4022 15.3132C24.4022 15.123 24.5561 14.9691 24.7464 14.9691H25.2824C25.4726 14.9691 25.6265 15.123 25.6265 15.3132C25.6265 15.5034 25.4726 15.6574 25.2824 15.6574ZM27.5206 15.6574H26.9846C26.7944 15.6574 26.6405 15.5035 26.6405 15.3132C26.6405 15.123 26.7944 14.9691 26.9846 14.9691H27.5206C27.7108 14.9691 27.8648 15.123 27.8648 15.3132C27.8648 15.5034 27.7108 15.6574 27.5206 15.6574Z" fill="#6C63FF"/>
<path d="M47.4526 19.4683C47.4526 14.8362 43.3368 11.0645 38.278 11.0645C36.8119 11.0645 35.3872 11.381 34.107 11.9936C34.6094 13.0742 34.8848 14.2649 34.8848 15.5176C34.8848 18.8144 32.9713 21.712 30.115 23.302C31.6568 26.0757 34.809 27.8721 38.278 27.8721C40.1432 27.8721 41.9327 27.3627 43.4606 26.4061L45.9729 27.5004C46.083 27.5486 46.2137 27.5348 46.3101 27.4591C46.4134 27.3903 46.4615 27.2733 46.4547 27.1494L46.1312 23.8182C46.9915 22.5173 47.4526 21.01 47.4526 19.4683ZM40.7764 22.18H35.7726C35.5799 22.18 35.4285 22.0286 35.4285 21.8359C35.4285 21.65 35.5799 21.4917 35.7726 21.4917H40.7764C40.9691 21.4917 41.1205 21.65 41.1205 21.8359C41.1205 22.0286 40.9691 22.18 40.7764 22.18ZM40.7764 19.8124H35.7726C35.5799 19.8124 35.4285 19.661 35.4285 19.4683C35.4285 19.2755 35.5799 19.1241 35.7726 19.1241H40.7764C40.9691 19.1241 41.1205 19.2755 41.1205 19.4683C41.1205 19.661 40.9691 19.8124 40.7764 19.8124ZM40.7764 17.4448H35.7726C35.5799 17.4448 35.4285 17.2865 35.4285 17.1006C35.4285 16.9079 35.5799 16.7565 35.7726 16.7565H40.7764C40.9691 16.7565 41.1205 16.9079 41.1205 17.1006C41.1205 17.2865 40.9691 17.4448 40.7764 17.4448ZM16.8258 50.4766H10.1396V36.7171H16.8258V49.4348V50.4766ZM37.6582 36.9672C37.6582 37.5271 37.2051 37.9816 36.6465 37.9871C36.6424 37.987 36.639 37.9848 36.6349 37.9848H32.1853C31.9951 37.9848 31.8411 38.1387 31.8411 38.3289C31.8411 38.5191 31.9951 38.6731 32.1853 38.6731H36.6199C36.6257 38.6734 36.6306 38.6764 36.6366 38.6764C37.1998 38.6764 37.6582 39.1348 37.6582 39.6981V40.9745C37.6582 41.535 37.2039 41.991 36.6443 41.9953C36.641 41.9953 36.6382 41.9935 36.6349 41.9935H32.1853C31.9951 41.9935 31.8411 42.1474 31.8411 42.3376C31.8411 42.5278 31.9951 42.6817 32.1853 42.6817H35.9541C35.9588 42.6819 35.9627 42.6844 35.9674 42.6844C36.5307 42.6844 36.9891 43.1428 36.9891 43.7061V45.3179C36.9891 45.8783 36.5351 46.3333 35.9759 46.338C35.9727 46.3379 35.97 46.3362 35.9668 46.3362H32.1853C31.9951 46.3362 31.8412 46.4901 31.8412 46.6803C31.8412 46.8705 31.9951 47.0244 32.1853 47.0244H35.285C35.2897 47.0246 35.2936 47.0271 35.2983 47.0271C35.8616 47.0271 36.32 47.4855 36.32 48.0488V49.4556C36.32 50.0188 35.8616 50.4766 35.2983 50.4766H19.9899L17.5141 49.223V36.576C21.7839 34.1858 24.4822 30.7263 25.5388 26.2727C25.6871 25.4242 26.4231 24.802 27.2823 24.802C28.2596 24.802 29.0548 25.5972 29.0564 26.5402C28.7674 29.4083 28.1575 31.8878 27.1916 34.1193C27.1455 34.2255 27.1563 34.3478 27.2198 34.4446C27.2833 34.5414 27.3916 34.5999 27.5075 34.5999H36.6365C37.1998 34.5999 37.6582 35.0583 37.6582 35.6215V36.9672H37.6582Z" fill="#6C63FF"/>
</svg>
