<svg width="38" height="38" viewBox="0 0 38 38" fill="none" xmlns="http://www.w3.org/2000/svg">
<path d="M15.7969 0.613281C7.25376 0.613281 0.294922 7.57212 0.294922 16.1153C0.294922 24.6584 7.25376 31.6173 15.7969 31.6173C19.512 31.6173 22.9238 30.298 25.5977 28.1081L34.8535 37.3639C34.9963 37.5127 35.1674 37.6315 35.3567 37.7133C35.5461 37.7951 35.7498 37.8384 35.956 37.8405C36.1623 37.8426 36.3669 37.8035 36.5578 37.7255C36.7488 37.6476 36.9223 37.5323 37.0681 37.3865C37.2139 37.2406 37.3292 37.0671 37.4072 36.8762C37.4851 36.6852 37.5242 36.4806 37.5221 36.2744C37.52 36.0682 37.4768 35.8644 37.3949 35.6751C37.3131 35.4858 37.1943 35.3147 37.0456 35.1718L27.7898 25.9161C29.9797 23.2421 31.2989 19.8303 31.2989 16.1153C31.2989 7.57212 24.3401 0.613281 15.7969 0.613281ZM15.7969 3.71368C22.6645 3.71368 28.1985 9.2477 28.1985 16.1153C28.1985 22.9829 22.6645 28.5169 15.7969 28.5169C8.92934 28.5169 3.39532 22.9829 3.39532 16.1153C3.39532 9.2477 8.92934 3.71368 15.7969 3.71368Z" fill="#65617D"/>
</svg>
